<svg width="206" height="24" viewBox="0 0 206 24" fill="none" xmlns="http://www.w3.org/2000/svg">
<path d="M0.96 17.048C0.864 17.048 0.794667 17.0107 0.752 16.936C0.709333 16.8613 0.688 16.7813 0.688 16.696C0.698667 16.5147 0.741333 16.4133 0.816 16.392C0.890667 16.3707 0.981333 16.36 1.088 16.36C1.42933 16.36 1.66933 16.3013 1.808 16.184C1.94667 16.056 2.032 15.9013 2.064 15.72C2.10667 15.528 2.128 15.3307 2.128 15.128V8.776C2.128 8.57333 2.10667 8.38133 2.064 8.2C2.032 8.008 1.94667 7.85333 1.808 7.736C1.66933 7.608 1.42933 7.544 1.088 7.544C0.981333 7.544 0.890667 7.53333 0.816 7.512C0.741333 7.49067 0.698667 7.38933 0.688 7.208C0.688 7.12267 0.709333 7.04267 0.752 6.968C0.794667 6.89333 0.864 6.856 0.96 6.856C1.30133 6.86667 1.62133 6.87733 1.92 6.888C2.22933 6.89867 2.544 6.904 2.864 6.904H7.488C7.60533 6.904 7.70133 6.93067 7.776 6.984C7.86133 7.03733 7.904 7.13867 7.904 7.288L7.952 9.528C7.952 9.63467 7.89867 9.71467 7.792 9.768C7.696 9.82133 7.60533 9.848 7.52 9.848C7.40267 9.848 7.29067 9.82667 7.184 9.784C7.088 9.73067 7.02933 9.656 7.008 9.56C6.944 9.08 6.85867 8.696 6.752 8.408C6.656 8.10933 6.50667 7.896 6.304 7.768C6.112 7.62933 5.82933 7.55467 5.456 7.544H3.712V11.704H6.576C6.66133 11.7147 6.72533 11.7573 6.768 11.832C6.81067 11.9067 6.832 11.9867 6.832 12.072C6.832 12.1467 6.81067 12.2213 6.768 12.296C6.72533 12.36 6.66133 12.392 6.576 12.392H3.712V15.128C3.72267 15.3307 3.744 15.528 3.776 15.72C3.808 15.9013 3.89333 16.056 4.032 16.184C4.18133 16.3013 4.42133 16.36 4.752 16.36C4.85867 16.36 4.94933 16.3707 5.024 16.392C5.09867 16.4133 5.14133 16.5147 5.152 16.696C5.152 16.7813 5.13067 16.8613 5.088 16.936C5.04533 17.0107 4.97067 17.048 4.864 17.048C4.18133 17.016 3.52 17 2.88 17C2.56 17 2.24533 17 1.936 17C1.62667 17.0107 1.30133 17.0267 0.96 17.048ZM12.1656 17.192C11.3443 17.192 10.651 17.016 10.0856 16.664C9.53096 16.312 9.11496 15.8427 8.83763 15.256C8.56029 14.6693 8.42163 14.0293 8.42163 13.336C8.42163 12.8667 8.50163 12.4133 8.66163 11.976C8.83229 11.528 9.07229 11.1227 9.38163 10.76C9.69096 10.3867 10.0643 10.0933 10.5016 9.88C10.939 9.66667 11.435 9.56 11.9896 9.56C12.971 9.56 13.707 9.816 14.1976 10.328C14.699 10.8293 14.987 11.4693 15.0616 12.248C15.0616 12.6213 14.955 12.8667 14.7416 12.984C14.539 13.1013 14.2723 13.16 13.9416 13.16H10.0536C10.0536 13.7787 10.139 14.3333 10.3096 14.824C10.4803 15.304 10.747 15.688 11.1096 15.976C11.483 16.2533 11.9736 16.392 12.5816 16.392C13.0296 16.392 13.4136 16.296 13.7336 16.104C14.0536 15.912 14.363 15.576 14.6616 15.096C14.747 14.9893 14.8643 14.984 15.0136 15.08C15.099 15.1227 15.1523 15.192 15.1736 15.288C15.195 15.3733 15.1843 15.448 15.1416 15.512C14.811 16.0347 14.395 16.4453 13.8936 16.744C13.3923 17.0427 12.8163 17.192 12.1656 17.192ZM10.0536 12.552H12.6616C12.9176 12.552 13.1203 12.504 13.2696 12.408C13.4296 12.3013 13.515 12.1253 13.5256 11.88C13.5256 11.4213 13.3976 11.016 13.1416 10.664C12.8963 10.3013 12.5123 10.12 11.9896 10.12C11.4563 10.12 11.0083 10.3333 10.6456 10.76C10.2936 11.1867 10.0963 11.784 10.0536 12.552ZM16.5809 17.048C16.5062 17.048 16.4422 17.016 16.3889 16.952C16.3462 16.8773 16.3249 16.8027 16.3249 16.728C16.3462 16.568 16.3889 16.4827 16.4529 16.472C16.5169 16.4507 16.6022 16.44 16.7089 16.44C17.0075 16.44 17.2102 16.392 17.3169 16.296C17.4235 16.1893 17.4822 16.0507 17.4929 15.88C17.5142 15.7093 17.5249 15.5333 17.5249 15.352V11.688C17.5249 11.496 17.5142 11.32 17.4929 11.16C17.4822 10.9893 17.4235 10.856 17.3169 10.76C17.2102 10.6533 17.0075 10.6 16.7089 10.6C16.6129 10.6 16.5222 10.5893 16.4369 10.568C16.3622 10.536 16.3249 10.44 16.3249 10.28C16.3249 10.12 16.4102 10.024 16.5809 9.992C17.0715 9.91733 17.4449 9.84267 17.7009 9.768C17.9675 9.69333 18.1702 9.62933 18.3089 9.576C18.4475 9.52267 18.5702 9.49067 18.6769 9.48C18.7622 9.46933 18.8315 9.48533 18.8849 9.528C18.9489 9.57067 18.9809 9.656 18.9809 9.784V15.352C18.9809 15.5333 18.9862 15.7093 18.9969 15.88C19.0182 16.0507 19.0822 16.1893 19.1889 16.296C19.3062 16.392 19.5142 16.44 19.8129 16.44C19.9089 16.44 19.9889 16.4507 20.0529 16.472C20.1275 16.4827 20.1702 16.568 20.1809 16.728C20.1809 16.8027 20.1595 16.8773 20.1169 16.952C20.0742 17.016 20.0102 17.048 19.9249 17.048C19.6155 17.0267 19.3275 17.0107 19.0609 17C18.8049 17 18.5329 17 18.2449 17C17.9569 17 17.6849 17 17.4289 17C17.1729 17.0107 16.8902 17.0267 16.5809 17.048ZM18.1649 7.704C17.8662 7.704 17.6155 7.61333 17.4129 7.432C17.2102 7.24 17.1089 7.00533 17.1089 6.728C17.1089 6.48267 17.2315 6.264 17.4769 6.072C17.7222 5.88 17.9995 5.784 18.3089 5.784C18.5755 5.784 18.7942 5.88 18.9649 6.072C19.1355 6.25333 19.2209 6.488 19.2209 6.776C19.2209 7.032 19.1195 7.25067 18.9169 7.432C18.7142 7.61333 18.4635 7.704 18.1649 7.704ZM23.9248 17.272C23.6048 17.272 23.3008 17.192 23.0128 17.032C22.7248 16.872 22.4848 16.6267 22.2928 16.296C22.1114 15.9653 22.0208 15.5493 22.0208 15.048V10.344L21.0928 10.376C21.0181 10.376 20.9594 10.3493 20.9168 10.296C20.8848 10.232 20.8688 10.1627 20.8688 10.088C20.8688 9.87467 20.9434 9.752 21.0928 9.72C21.4874 9.64533 21.7861 9.52267 21.9888 9.352C22.1914 9.17067 22.3461 8.95733 22.4528 8.712C22.5701 8.46667 22.6768 8.2 22.7728 7.912C22.8048 7.82667 22.8528 7.77333 22.9168 7.752C22.9808 7.72 23.0501 7.704 23.1248 7.704C23.1888 7.704 23.2581 7.72 23.3328 7.752C23.4181 7.784 23.4608 7.84267 23.4608 7.928L23.3488 9.752L25.2208 9.64C25.3168 9.62933 25.3808 9.656 25.4128 9.72C25.4448 9.784 25.4608 9.85867 25.4608 9.944C25.4608 10.0507 25.4394 10.1573 25.3968 10.264C25.3648 10.3707 25.3221 10.424 25.2688 10.424L23.4768 10.376V15.24C23.4768 15.5493 23.5408 15.832 23.6688 16.088C23.8074 16.344 24.0528 16.472 24.4048 16.472C24.5221 16.472 24.6554 16.4613 24.8048 16.44C24.9541 16.4187 25.1141 16.3707 25.2848 16.296C25.3274 16.2747 25.3701 16.2587 25.4128 16.248C25.4554 16.2267 25.4981 16.216 25.5408 16.216C25.6261 16.216 25.6901 16.2533 25.7328 16.328C25.7754 16.392 25.8128 16.4613 25.8448 16.536C25.8768 16.632 25.8501 16.7067 25.7648 16.76C25.4341 16.9733 25.1301 17.112 24.8528 17.176C24.5754 17.24 24.2661 17.272 23.9248 17.272ZM30.9153 17.192C30.1686 17.192 29.5126 17.016 28.9473 16.664C28.3926 16.312 27.9606 15.8533 27.6513 15.288C27.3419 14.7227 27.1873 14.12 27.1873 13.48C27.1873 12.8507 27.2993 12.2907 27.5233 11.8C27.7473 11.3093 28.0406 10.8987 28.4033 10.568C28.7766 10.2373 29.1819 9.98667 29.6193 9.816C30.0566 9.64533 30.4886 9.56 30.9153 9.56C31.6619 9.56 32.3126 9.736 32.8673 10.088C33.4326 10.44 33.8699 10.8987 34.1793 11.464C34.4886 12.0293 34.6433 12.632 34.6433 13.272C34.6433 13.9013 34.5259 14.4613 34.2913 14.952C34.0673 15.4427 33.7686 15.8533 33.3953 16.184C33.0326 16.5147 32.6326 16.7653 32.1953 16.936C31.7579 17.1067 31.3313 17.192 30.9153 17.192ZM30.9153 16.6C31.4379 16.6 31.8486 16.4453 32.1473 16.136C32.4566 15.8267 32.6753 15.4213 32.8033 14.92C32.9419 14.408 33.0113 13.8587 33.0113 13.272C33.0113 12.7067 32.9419 12.1893 32.8033 11.72C32.6646 11.2507 32.4406 10.872 32.1313 10.584C31.8219 10.296 31.4166 10.152 30.9153 10.152C30.3926 10.152 29.9766 10.3067 29.6673 10.616C29.3579 10.9147 29.1393 11.3147 29.0113 11.816C28.8833 12.3067 28.8193 12.8507 28.8193 13.448C28.8193 14.0027 28.8833 14.52 29.0113 15C29.1499 15.48 29.3739 15.8693 29.6833 16.168C29.9926 16.456 30.4033 16.6 30.9153 16.6ZM43.0034 17.192C41.9047 17.192 41.046 16.8453 40.4274 16.152C39.8194 15.448 39.5154 14.52 39.5154 13.368C39.5474 12.632 39.7287 11.9813 40.0594 11.416C40.4007 10.8507 40.8487 10.408 41.4034 10.088C41.9687 9.75733 42.5927 9.58133 43.2754 9.56C43.6487 9.56 44.0274 9.608 44.4114 9.704C44.806 9.78933 45.1314 9.95467 45.3874 10.2C45.654 10.4347 45.7874 10.776 45.7874 11.224C45.7874 11.5333 45.6914 11.8213 45.4994 12.088C45.3074 12.344 45.0407 12.472 44.6994 12.472C44.4647 12.472 44.2834 12.4133 44.1554 12.296C44.0274 12.1787 43.9634 12.0933 43.9634 12.04C43.9634 12.0187 44.006 11.976 44.0914 11.912C44.1874 11.8373 44.278 11.7413 44.3634 11.624C44.4487 11.496 44.4914 11.3413 44.4914 11.16C44.4914 10.8187 44.3687 10.568 44.1234 10.408C43.878 10.248 43.6007 10.1627 43.2914 10.152C42.822 10.152 42.4434 10.248 42.1554 10.44C41.878 10.632 41.6647 10.888 41.5154 11.208C41.366 11.5173 41.2647 11.8587 41.2114 12.232C41.1687 12.6053 41.1474 12.968 41.1474 13.32C41.1474 13.9067 41.238 14.4347 41.4194 14.904C41.6007 15.3627 41.8567 15.7253 42.1874 15.992C42.518 16.2587 42.9127 16.392 43.3714 16.392C43.8407 16.392 44.2354 16.2907 44.5554 16.088C44.8754 15.8853 45.1687 15.5867 45.4354 15.192C45.51 15.0853 45.622 15.0747 45.7714 15.16C45.846 15.2027 45.8994 15.2613 45.9314 15.336C45.9634 15.4107 45.9527 15.4853 45.8994 15.56C45.5474 16.0613 45.11 16.4613 44.5874 16.76C44.0647 17.048 43.5367 17.192 43.0034 17.192ZM50.8371 17.192C50.0905 17.192 49.4345 17.016 48.8691 16.664C48.3145 16.312 47.8825 15.8533 47.5731 15.288C47.2638 14.7227 47.1091 14.12 47.1091 13.48C47.1091 12.8507 47.2211 12.2907 47.4451 11.8C47.6691 11.3093 47.9625 10.8987 48.3251 10.568C48.6985 10.2373 49.1038 9.98667 49.5411 9.816C49.9785 9.64533 50.4105 9.56 50.8371 9.56C51.5838 9.56 52.2345 9.736 52.7891 10.088C53.3545 10.44 53.7918 10.8987 54.1011 11.464C54.4105 12.0293 54.5651 12.632 54.5651 13.272C54.5651 13.9013 54.4478 14.4613 54.2131 14.952C53.9891 15.4427 53.6905 15.8533 53.3171 16.184C52.9545 16.5147 52.5545 16.7653 52.1171 16.936C51.6798 17.1067 51.2531 17.192 50.8371 17.192ZM50.8371 16.6C51.3598 16.6 51.7705 16.4453 52.0691 16.136C52.3785 15.8267 52.5971 15.4213 52.7251 14.92C52.8638 14.408 52.9331 13.8587 52.9331 13.272C52.9331 12.7067 52.8638 12.1893 52.7251 11.72C52.5865 11.2507 52.3625 10.872 52.0531 10.584C51.7438 10.296 51.3385 10.152 50.8371 10.152C50.3145 10.152 49.8985 10.3067 49.5891 10.616C49.2798 10.9147 49.0611 11.3147 48.9331 11.816C48.8051 12.3067 48.7411 12.8507 48.7411 13.448C48.7411 14.0027 48.8051 14.52 48.9331 15C49.0718 15.48 49.2958 15.8693 49.6051 16.168C49.9145 16.456 50.3251 16.6 50.8371 16.6ZM55.925 17.048C55.8503 17.048 55.7863 17.016 55.733 16.952C55.6903 16.8773 55.669 16.8027 55.669 16.728C55.6797 16.568 55.717 16.4827 55.781 16.472C55.8557 16.4507 55.941 16.44 56.037 16.44C56.3357 16.44 56.5383 16.392 56.645 16.296C56.7623 16.1893 56.8263 16.0507 56.837 15.88C56.8583 15.7093 56.869 15.5333 56.869 15.352V11.688C56.869 11.496 56.8583 11.32 56.837 11.16C56.8263 10.9893 56.7677 10.856 56.661 10.76C56.5543 10.6533 56.3517 10.6 56.053 10.6C55.957 10.6 55.8663 10.5893 55.781 10.568C55.7063 10.536 55.669 10.44 55.669 10.28C55.669 10.12 55.7543 10.024 55.925 9.992C56.4157 9.91733 56.789 9.84267 57.045 9.768C57.3117 9.69333 57.509 9.62933 57.637 9.576C57.7757 9.52267 57.8983 9.49067 58.005 9.48C58.0903 9.46933 58.1597 9.48533 58.213 9.528C58.277 9.57067 58.309 9.656 58.309 9.784V10.792H58.357C58.5703 10.5893 58.7783 10.3973 58.981 10.216C59.1837 10.024 59.429 9.86933 59.717 9.752C60.005 9.624 60.373 9.56 60.821 9.56C61.3437 9.56 61.7917 9.672 62.165 9.896C62.5383 10.1093 62.8103 10.408 62.981 10.792H63.013C63.2263 10.5893 63.4503 10.3973 63.685 10.216C63.9197 10.024 64.197 9.86933 64.517 9.752C64.837 9.624 65.221 9.56 65.669 9.56C66.3943 9.56 66.9703 9.77867 67.397 10.216C67.8237 10.6533 68.037 11.2293 68.037 11.944V15.352C68.037 15.5333 68.0423 15.7093 68.053 15.88C68.0743 16.0507 68.1383 16.1893 68.245 16.296C68.3623 16.392 68.5703 16.44 68.869 16.44C68.965 16.44 69.045 16.4507 69.109 16.472C69.1837 16.4827 69.2263 16.568 69.237 16.728C69.237 16.8027 69.2157 16.8773 69.173 16.952C69.1303 17.016 69.0663 17.048 68.981 17.048C68.6717 17.0267 68.3837 17.0107 68.117 17C67.861 17 67.589 17 67.301 17C67.013 17 66.741 17 66.485 17C66.229 17.0107 65.9463 17.0267 65.637 17.048C65.5517 17.048 65.4877 17.016 65.445 16.952C65.4023 16.8773 65.381 16.8027 65.381 16.728C65.3917 16.568 65.429 16.4827 65.493 16.472C65.5677 16.4507 65.653 16.44 65.749 16.44C66.0477 16.44 66.2503 16.392 66.357 16.296C66.4743 16.1893 66.5383 16.0507 66.549 15.88C66.5703 15.7093 66.581 15.5333 66.581 15.352V11.96C66.581 11.608 66.501 11.32 66.341 11.096C66.1917 10.872 65.9997 10.7067 65.765 10.6C65.5303 10.4933 65.2903 10.44 65.045 10.44C64.6823 10.44 64.373 10.5093 64.117 10.648C63.861 10.776 63.6583 10.9253 63.509 11.096C63.3597 11.2667 63.253 11.416 63.189 11.544V15.352C63.189 15.5333 63.189 15.7093 63.189 15.88C63.1997 16.0507 63.253 16.1893 63.349 16.296C63.4557 16.392 63.6583 16.44 63.957 16.44C64.0637 16.44 64.149 16.4507 64.213 16.472C64.277 16.4827 64.3143 16.568 64.325 16.728C64.325 16.8027 64.3037 16.8773 64.261 16.952C64.2183 17.016 64.1543 17.048 64.069 17.048C63.7597 17.0267 63.4823 17.0107 63.237 17C62.9917 17 62.725 17 62.437 17C62.1597 17 61.8983 17 61.653 17C61.4183 17.0107 61.1463 17.0267 60.837 17.048C60.7517 17.048 60.6877 17.016 60.645 16.952C60.6023 16.8773 60.581 16.8027 60.581 16.728C60.5917 16.568 60.629 16.4827 60.693 16.472C60.757 16.4507 60.8423 16.44 60.949 16.44C61.2477 16.44 61.445 16.392 61.541 16.296C61.6477 16.1893 61.701 16.0507 61.701 15.88C61.7117 15.7093 61.717 15.5333 61.717 15.352V11.96C61.717 11.4267 61.557 11.0427 61.237 10.808C60.917 10.5627 60.5703 10.44 60.197 10.44C59.8237 10.44 59.509 10.5093 59.253 10.648C58.997 10.776 58.7943 10.9253 58.645 11.096C58.4957 11.2667 58.389 11.416 58.325 11.544V15.352C58.325 15.5333 58.3303 15.7093 58.341 15.88C58.3623 16.0507 58.4263 16.1893 58.533 16.296C58.6503 16.392 58.8583 16.44 59.157 16.44C59.253 16.44 59.333 16.4507 59.397 16.472C59.4717 16.4827 59.5143 16.568 59.525 16.728C59.525 16.8027 59.5037 16.8773 59.461 16.952C59.4183 17.016 59.3543 17.048 59.269 17.048C58.9597 17.0267 58.6717 17.0107 58.405 17C58.149 17 57.877 17 57.589 17C57.301 17 57.029 17 56.773 17C56.517 17.0107 56.2343 17.0267 55.925 17.048Z" fill="#F0E8C2"/>
<path d="M89 9.875C89 14.25 82.5131 17.7913 82.2369 17.9375C82.1641 17.9767 82.0827 17.9972 82 17.9972C81.9173 17.9972 81.8359 17.9767 81.7631 17.9375C81.4869 17.7913 75 14.25 75 9.875C75.0012 8.84764 75.4098 7.86269 76.1362 7.13624C76.8627 6.40979 77.8476 6.00116 78.875 6C80.1656 6 81.2956 6.555 82 7.49312C82.7044 6.555 83.8344 6 85.125 6C86.1524 6.00116 87.1373 6.40979 87.8638 7.13624C88.5902 7.86269 88.9988 8.84764 89 9.875Z" fill="#F0E8C2"/>
<path d="M94.624 20.328C94.5493 20.328 94.4853 20.2907 94.432 20.216C94.3893 20.152 94.368 20.0827 94.368 20.008C94.3787 19.848 94.416 19.7573 94.48 19.736C94.5547 19.7253 94.64 19.72 94.736 19.72C95.024 19.72 95.2213 19.6667 95.328 19.56C95.4453 19.464 95.5147 19.3307 95.536 19.16C95.5573 18.9893 95.568 18.8133 95.568 18.632V11.688C95.568 11.496 95.5573 11.32 95.536 11.16C95.5253 10.9893 95.4667 10.856 95.36 10.76C95.2533 10.6533 95.0507 10.6 94.752 10.6C94.656 10.6 94.5653 10.5893 94.48 10.568C94.4053 10.536 94.368 10.44 94.368 10.28C94.368 10.12 94.4533 10.024 94.624 9.992C95.1147 9.91733 95.488 9.84267 95.744 9.768C96.0107 9.69333 96.208 9.62933 96.336 9.576C96.4747 9.52267 96.5973 9.49067 96.704 9.48C96.7893 9.46933 96.8587 9.48533 96.912 9.528C96.976 9.57067 97.008 9.656 97.008 9.784V10.552H97.056C97.3547 10.2747 97.712 10.04 98.128 9.848C98.544 9.656 98.944 9.56 99.328 9.56C99.9787 9.56 100.555 9.72 101.056 10.04C101.557 10.36 101.952 10.808 102.24 11.384C102.528 11.9493 102.672 12.6107 102.672 13.368C102.672 14.136 102.496 14.808 102.144 15.384C101.792 15.96 101.339 16.408 100.784 16.728C100.229 17.0373 99.6373 17.192 99.008 17.192C98.528 17.192 98.1387 17.1387 97.84 17.032C97.552 16.936 97.3013 16.824 97.088 16.696H97.024V18.632C97.024 18.8133 97.0347 18.9893 97.056 19.16C97.0773 19.3307 97.1467 19.464 97.264 19.56C97.3813 19.6667 97.5787 19.72 97.856 19.72C97.952 19.72 98.032 19.7253 98.096 19.736C98.1707 19.7573 98.2133 19.848 98.224 20.008C98.224 20.0827 98.2027 20.152 98.16 20.216C98.1173 20.2907 98.0533 20.328 97.968 20.328C97.6587 20.3067 97.3707 20.2907 97.104 20.28C96.848 20.28 96.576 20.28 96.288 20.28C96 20.28 95.728 20.28 95.472 20.28C95.216 20.2907 94.9333 20.3067 94.624 20.328ZM98.88 16.648C99.296 16.648 99.6427 16.5467 99.92 16.344C100.197 16.1307 100.416 15.864 100.576 15.544C100.747 15.2133 100.864 14.8613 100.928 14.488C101.003 14.104 101.04 13.7467 101.04 13.416C101.04 12.9147 100.96 12.4347 100.8 11.976C100.651 11.5067 100.405 11.1227 100.064 10.824C99.7333 10.5147 99.296 10.36 98.752 10.36C98.3467 10.36 98.0107 10.4453 97.744 10.616C97.4773 10.776 97.2373 10.968 97.024 11.192V15.48C97.1413 15.7573 97.3547 16.024 97.664 16.28C97.984 16.5253 98.3893 16.648 98.88 16.648ZM107.744 17.192C106.922 17.192 106.229 17.016 105.664 16.664C105.109 16.312 104.693 15.8427 104.416 15.256C104.138 14.6693 104 14.0293 104 13.336C104 12.8667 104.08 12.4133 104.24 11.976C104.41 11.528 104.65 11.1227 104.96 10.76C105.269 10.3867 105.642 10.0933 106.08 9.88C106.517 9.66667 107.013 9.56 107.568 9.56C108.549 9.56 109.285 9.816 109.776 10.328C110.277 10.8293 110.565 11.4693 110.64 12.248C110.64 12.6213 110.533 12.8667 110.32 12.984C110.117 13.1013 109.85 13.16 109.52 13.16H105.632C105.632 13.7787 105.717 14.3333 105.888 14.824C106.058 15.304 106.325 15.688 106.688 15.976C107.061 16.2533 107.552 16.392 108.16 16.392C108.608 16.392 108.992 16.296 109.312 16.104C109.632 15.912 109.941 15.576 110.24 15.096C110.325 14.9893 110.442 14.984 110.592 15.08C110.677 15.1227 110.73 15.192 110.752 15.288C110.773 15.3733 110.762 15.448 110.72 15.512C110.389 16.0347 109.973 16.4453 109.472 16.744C108.97 17.0427 108.394 17.192 107.744 17.192ZM105.632 12.552H108.24C108.496 12.552 108.698 12.504 108.848 12.408C109.008 12.3013 109.093 12.1253 109.104 11.88C109.104 11.4213 108.976 11.016 108.72 10.664C108.474 10.3013 108.09 10.12 107.568 10.12C107.034 10.12 106.586 10.3333 106.224 10.76C105.872 11.1867 105.674 11.784 105.632 12.552ZM111.718 17.048C111.643 17.048 111.579 17.016 111.526 16.952C111.483 16.8773 111.462 16.8027 111.462 16.728C111.472 16.568 111.51 16.4827 111.574 16.472C111.648 16.4507 111.734 16.44 111.83 16.44C112.128 16.44 112.331 16.392 112.438 16.296C112.555 16.1893 112.619 16.0507 112.63 15.88C112.651 15.7093 112.662 15.5333 112.662 15.352V7.544C112.662 7.352 112.651 7.176 112.63 7.016C112.619 6.84533 112.56 6.712 112.454 6.616C112.347 6.50933 112.144 6.456 111.846 6.456C111.75 6.456 111.659 6.44533 111.574 6.424C111.499 6.392 111.462 6.296 111.462 6.136C111.462 5.976 111.547 5.88 111.718 5.848C112.208 5.77333 112.582 5.69867 112.838 5.624C113.104 5.54933 113.307 5.48533 113.446 5.432C113.584 5.37867 113.707 5.34667 113.814 5.336C113.899 5.32533 113.968 5.34133 114.022 5.384C114.086 5.42667 114.118 5.512 114.118 5.64V15.352C114.118 15.5333 114.123 15.7093 114.134 15.88C114.155 16.0507 114.219 16.1893 114.326 16.296C114.443 16.392 114.651 16.44 114.95 16.44C115.046 16.44 115.126 16.4507 115.19 16.472C115.264 16.4827 115.307 16.568 115.318 16.728C115.318 16.8027 115.296 16.8773 115.254 16.952C115.211 17.016 115.147 17.048 115.062 17.048C114.752 17.0267 114.464 17.0107 114.198 17C113.942 17 113.67 17 113.382 17C113.094 17 112.822 17 112.566 17C112.31 17.0107 112.027 17.0267 111.718 17.048ZM118.36 17.192C117.709 17.192 117.187 17.0053 116.792 16.632C116.408 16.2587 116.216 15.8107 116.216 15.288C116.216 14.744 116.355 14.3173 116.632 14.008C116.92 13.6987 117.293 13.4693 117.752 13.32C118.221 13.1707 118.728 13.0693 119.272 13.016C119.827 12.9627 120.365 12.92 120.888 12.888V11.624C120.888 11.1227 120.76 10.7333 120.504 10.456C120.259 10.168 119.837 10.024 119.24 10.024C118.941 10.024 118.659 10.12 118.392 10.312C118.136 10.504 118.008 10.7813 118.008 11.144C118.008 11.3147 118.051 11.4587 118.136 11.576C118.221 11.6933 118.307 11.784 118.392 11.848C118.477 11.912 118.52 11.9547 118.52 11.976C118.52 12.0187 118.456 12.0987 118.328 12.216C118.211 12.3227 118.045 12.376 117.832 12.376C117.501 12.376 117.245 12.2533 117.064 12.008C116.883 11.7627 116.792 11.4907 116.792 11.192C116.792 10.7867 116.915 10.4667 117.16 10.232C117.416 9.99733 117.741 9.82667 118.136 9.72C118.531 9.61333 118.931 9.56 119.336 9.56C119.816 9.56 120.28 9.61867 120.728 9.736C121.187 9.85333 121.56 10.0773 121.848 10.408C122.147 10.7387 122.296 11.2347 122.296 11.896V15.624C122.307 15.7307 122.333 15.8587 122.376 16.008C122.419 16.1573 122.499 16.2907 122.616 16.408C122.744 16.5147 122.915 16.568 123.128 16.568C123.203 16.568 123.261 16.584 123.304 16.616C123.347 16.6373 123.368 16.7067 123.368 16.824C123.368 16.92 123.315 16.9947 123.208 17.048C123.101 17.1013 122.979 17.1387 122.84 17.16C122.701 17.1813 122.584 17.192 122.488 17.192C122.093 17.192 121.741 17.08 121.432 16.856C121.123 16.6213 120.941 16.3013 120.888 15.896C120.653 16.3227 120.301 16.648 119.832 16.872C119.373 17.0853 118.883 17.192 118.36 17.192ZM118.872 16.328C119.235 16.328 119.565 16.2373 119.864 16.056C120.173 15.8747 120.419 15.6293 120.6 15.32C120.792 15 120.888 14.648 120.888 14.264V13.352C119.789 13.4267 119.005 13.6027 118.536 13.88C118.067 14.1573 117.832 14.6107 117.832 15.24C117.832 15.9653 118.179 16.328 118.872 16.328ZM128.226 17.048C128.119 17.048 128.045 17.0107 128.002 16.936C127.959 16.8613 127.938 16.7813 127.938 16.696C127.949 16.5147 127.991 16.4133 128.066 16.392C128.141 16.3707 128.231 16.36 128.338 16.36C128.679 16.36 128.919 16.3013 129.058 16.184C129.197 16.056 129.282 15.9013 129.314 15.72C129.357 15.528 129.378 15.3307 129.378 15.128V8.792C129.378 8.58933 129.357 8.392 129.314 8.2C129.282 8.008 129.197 7.85333 129.058 7.736C128.919 7.608 128.679 7.544 128.338 7.544C128.231 7.544 128.141 7.53333 128.066 7.512C127.991 7.49067 127.949 7.38933 127.938 7.208C127.938 7.12267 127.959 7.04267 128.002 6.968C128.045 6.89333 128.119 6.856 128.226 6.856C128.567 6.86667 128.887 6.87733 129.186 6.888C129.495 6.89867 129.81 6.904 130.13 6.904H132.882C133.746 6.91467 134.445 7.048 134.978 7.304C135.522 7.56 135.917 7.88533 136.162 8.28C136.407 8.67467 136.53 9.08533 136.53 9.512C136.53 10.0773 136.301 10.6107 135.842 11.112C135.394 11.6133 134.759 11.9707 133.938 12.184C134.343 12.824 134.754 13.4693 135.17 14.12C135.586 14.76 136.066 15.3627 136.61 15.928C136.759 16.0453 136.903 16.1413 137.042 16.216C137.191 16.2907 137.367 16.3387 137.57 16.36C137.655 16.3707 137.741 16.3867 137.826 16.408C137.911 16.4187 137.959 16.5147 137.97 16.696C137.97 16.7813 137.949 16.8613 137.906 16.936C137.863 17.0107 137.789 17.048 137.682 17.048C137.458 17.0373 137.277 17.0267 137.138 17.016C137.01 17.016 136.882 17.0107 136.754 17C136.626 17 136.455 17 136.242 17C135.805 16.9147 135.431 16.76 135.122 16.536C134.823 16.312 134.53 16.0027 134.242 15.608C133.943 15.2027 133.666 14.792 133.41 14.376C133.154 13.96 132.903 13.5547 132.658 13.16C132.519 12.936 132.375 12.776 132.226 12.68C132.087 12.5733 131.821 12.52 131.426 12.52H130.962V15.128C130.973 15.3307 130.994 15.528 131.026 15.72C131.058 15.9013 131.143 16.056 131.282 16.184C131.431 16.3013 131.671 16.36 132.002 16.36C132.109 16.36 132.199 16.3707 132.274 16.392C132.349 16.4133 132.391 16.5147 132.402 16.696C132.402 16.7813 132.381 16.8613 132.338 16.936C132.295 17.0107 132.221 17.048 132.114 17.048C131.431 17.016 130.765 17 130.114 17C129.794 17 129.485 17 129.186 17C128.887 17.0107 128.567 17.0267 128.226 17.048ZM130.962 11.896H132.37C132.914 11.896 133.341 11.8213 133.65 11.672C133.97 11.5227 134.21 11.3307 134.37 11.096C134.53 10.8613 134.631 10.616 134.674 10.36C134.727 10.104 134.754 9.86933 134.754 9.656C134.754 9.304 134.674 8.96267 134.514 8.632C134.365 8.30133 134.093 8.02933 133.698 7.816C133.314 7.60267 132.775 7.496 132.082 7.496C131.623 7.496 131.319 7.58667 131.17 7.768C131.031 7.93867 130.962 8.29067 130.962 8.824V11.896ZM141.993 17.192C141.247 17.192 140.591 17.016 140.025 16.664C139.471 16.312 139.039 15.8533 138.729 15.288C138.42 14.7227 138.265 14.12 138.265 13.48C138.265 12.8507 138.377 12.2907 138.601 11.8C138.825 11.3093 139.119 10.8987 139.481 10.568C139.855 10.2373 140.26 9.98667 140.697 9.816C141.135 9.64533 141.567 9.56 141.993 9.56C142.74 9.56 143.391 9.736 143.945 10.088C144.511 10.44 144.948 10.8987 145.257 11.464C145.567 12.0293 145.721 12.632 145.721 13.272C145.721 13.9013 145.604 14.4613 145.369 14.952C145.145 15.4427 144.847 15.8533 144.473 16.184C144.111 16.5147 143.711 16.7653 143.273 16.936C142.836 17.1067 142.409 17.192 141.993 17.192ZM141.993 16.6C142.516 16.6 142.927 16.4453 143.225 16.136C143.535 15.8267 143.753 15.4213 143.881 14.92C144.02 14.408 144.089 13.8587 144.089 13.272C144.089 12.7067 144.02 12.1893 143.881 11.72C143.743 11.2507 143.519 10.872 143.209 10.584C142.9 10.296 142.495 10.152 141.993 10.152C141.471 10.152 141.055 10.3067 140.745 10.616C140.436 10.9147 140.217 11.3147 140.089 11.816C139.961 12.3067 139.897 12.8507 139.897 13.448C139.897 14.0027 139.961 14.52 140.089 15C140.228 15.48 140.452 15.8693 140.761 16.168C141.071 16.456 141.481 16.6 141.993 16.6ZM150.519 17.192C149.42 17.192 148.562 16.8453 147.943 16.152C147.335 15.448 147.031 14.52 147.031 13.368C147.063 12.632 147.244 11.9813 147.575 11.416C147.916 10.8507 148.364 10.408 148.919 10.088C149.484 9.75733 150.108 9.58133 150.791 9.56C151.164 9.56 151.543 9.608 151.927 9.704C152.322 9.78933 152.647 9.95467 152.903 10.2C153.17 10.4347 153.303 10.776 153.303 11.224C153.303 11.5333 153.207 11.8213 153.015 12.088C152.823 12.344 152.556 12.472 152.215 12.472C151.98 12.472 151.799 12.4133 151.671 12.296C151.543 12.1787 151.479 12.0933 151.479 12.04C151.479 12.0187 151.522 11.976 151.607 11.912C151.703 11.8373 151.794 11.7413 151.879 11.624C151.964 11.496 152.007 11.3413 152.007 11.16C152.007 10.8187 151.884 10.568 151.639 10.408C151.394 10.248 151.116 10.1627 150.807 10.152C150.338 10.152 149.959 10.248 149.671 10.44C149.394 10.632 149.18 10.888 149.031 11.208C148.882 11.5173 148.78 11.8587 148.727 12.232C148.684 12.6053 148.663 12.968 148.663 13.32C148.663 13.9067 148.754 14.4347 148.935 14.904C149.116 15.3627 149.372 15.7253 149.703 15.992C150.034 16.2587 150.428 16.392 150.887 16.392C151.356 16.392 151.751 16.2907 152.071 16.088C152.391 15.8853 152.684 15.5867 152.951 15.192C153.026 15.0853 153.138 15.0747 153.287 15.16C153.362 15.2027 153.415 15.2613 153.447 15.336C153.479 15.4107 153.468 15.4853 153.415 15.56C153.063 16.0613 152.626 16.4613 152.103 16.76C151.58 17.048 151.052 17.192 150.519 17.192ZM154.593 17.048C154.507 17.048 154.443 17.016 154.401 16.952C154.358 16.8773 154.337 16.8027 154.337 16.728C154.347 16.568 154.385 16.4827 154.449 16.472C154.523 16.4507 154.609 16.44 154.705 16.44C155.003 16.44 155.206 16.392 155.313 16.296C155.43 16.1893 155.494 16.0507 155.505 15.88C155.526 15.7093 155.537 15.5333 155.537 15.352V7.56C155.537 7.368 155.526 7.192 155.505 7.032C155.494 6.86133 155.435 6.728 155.329 6.632C155.222 6.52533 155.019 6.472 154.721 6.472C154.625 6.472 154.534 6.46133 154.449 6.44C154.374 6.408 154.337 6.312 154.337 6.152C154.337 5.992 154.422 5.896 154.593 5.864C155.083 5.78933 155.457 5.71467 155.713 5.64C155.979 5.56533 156.182 5.50133 156.321 5.448C156.459 5.39467 156.582 5.36267 156.689 5.352C156.774 5.34133 156.843 5.35733 156.897 5.4C156.961 5.44267 156.993 5.528 156.993 5.656V12.968C157.462 12.872 157.846 12.6747 158.145 12.376L159.489 11C159.553 10.9253 159.622 10.8453 159.697 10.76C159.782 10.6747 159.83 10.5947 159.841 10.52C159.862 10.4453 159.819 10.3867 159.713 10.344C159.606 10.3013 159.403 10.2907 159.105 10.312C158.987 10.2907 158.923 10.1947 158.913 10.024C158.913 9.93867 158.934 9.864 158.977 9.8C159.03 9.736 159.094 9.704 159.169 9.704C159.414 9.71467 159.707 9.72533 160.049 9.736C160.401 9.74667 160.694 9.752 160.929 9.752C161.11 9.752 161.286 9.74667 161.457 9.736C161.638 9.72533 161.819 9.71467 162.001 9.704C162.086 9.704 162.15 9.736 162.193 9.8C162.235 9.864 162.257 9.93867 162.257 10.024C162.246 10.1627 162.214 10.248 162.161 10.28C162.118 10.3013 162.059 10.312 161.985 10.312C161.569 10.312 161.233 10.3867 160.977 10.536C160.721 10.6853 160.433 10.9253 160.113 11.256L158.769 12.632C158.897 12.8027 159.067 13.0107 159.281 13.256C159.494 13.5013 159.718 13.7627 159.953 14.04C160.198 14.3067 160.427 14.5627 160.641 14.808C160.854 15.0427 161.025 15.2347 161.153 15.384C161.462 15.7147 161.718 15.9707 161.921 16.152C162.134 16.3227 162.395 16.4187 162.705 16.44C162.79 16.4507 162.87 16.4667 162.945 16.488C163.019 16.4987 163.057 16.5787 163.057 16.728C163.057 16.8027 163.035 16.8773 162.993 16.952C162.961 17.016 162.897 17.048 162.801 17.048C162.651 17.0373 162.529 17.0267 162.433 17.016C162.337 17.016 162.23 17.0107 162.113 17C161.995 17 161.825 17 161.601 17C161.387 17 161.078 17 160.673 17C160.299 16.5947 159.867 16.1093 159.377 15.544C158.897 14.9787 158.417 14.4187 157.937 13.864C157.83 13.7467 157.691 13.64 157.521 13.544C157.361 13.4373 157.185 13.3947 156.993 13.416V15.352C156.993 15.5333 156.998 15.7093 157.009 15.88C157.03 16.0507 157.094 16.1893 157.201 16.296C157.318 16.392 157.521 16.44 157.809 16.44C157.915 16.44 158.001 16.4507 158.065 16.472C158.139 16.4827 158.182 16.568 158.193 16.728C158.193 16.8027 158.171 16.8773 158.129 16.952C158.086 17.016 158.022 17.048 157.937 17.048C157.627 17.0267 157.339 17.0107 157.073 17C156.806 17 156.534 17 156.257 17C155.969 17 155.697 17 155.441 17C155.185 17.0107 154.902 17.0267 154.593 17.048ZM166.806 17.192C165.985 17.192 165.292 17.016 164.726 16.664C164.172 16.312 163.756 15.8427 163.478 15.256C163.201 14.6693 163.062 14.0293 163.062 13.336C163.062 12.8667 163.142 12.4133 163.302 11.976C163.473 11.528 163.713 11.1227 164.022 10.76C164.332 10.3867 164.705 10.0933 165.142 9.88C165.58 9.66667 166.076 9.56 166.63 9.56C167.612 9.56 168.348 9.816 168.838 10.328C169.34 10.8293 169.628 11.4693 169.702 12.248C169.702 12.6213 169.596 12.8667 169.382 12.984C169.18 13.1013 168.913 13.16 168.582 13.16H164.694C164.694 13.7787 164.78 14.3333 164.95 14.824C165.121 15.304 165.388 15.688 165.75 15.976C166.124 16.2533 166.614 16.392 167.222 16.392C167.67 16.392 168.054 16.296 168.374 16.104C168.694 15.912 169.004 15.576 169.302 15.096C169.388 14.9893 169.505 14.984 169.654 15.08C169.74 15.1227 169.793 15.192 169.814 15.288C169.836 15.3733 169.825 15.448 169.782 15.512C169.452 16.0347 169.036 16.4453 168.534 16.744C168.033 17.0427 167.457 17.192 166.806 17.192ZM164.694 12.552H167.302C167.558 12.552 167.761 12.504 167.91 12.408C168.07 12.3013 168.156 12.1253 168.166 11.88C168.166 11.4213 168.038 11.016 167.782 10.664C167.537 10.3013 167.153 10.12 166.63 10.12C166.097 10.12 165.649 10.3333 165.286 10.76C164.934 11.1867 164.737 11.784 164.694 12.552ZM173.894 17.272C173.574 17.272 173.27 17.192 172.982 17.032C172.694 16.872 172.454 16.6267 172.262 16.296C172.08 15.9653 171.99 15.5493 171.99 15.048V10.344L171.062 10.376C170.987 10.376 170.928 10.3493 170.886 10.296C170.854 10.232 170.838 10.1627 170.838 10.088C170.838 9.87467 170.912 9.752 171.062 9.72C171.456 9.64533 171.755 9.52267 171.958 9.352C172.16 9.17067 172.315 8.95733 172.422 8.712C172.539 8.46667 172.646 8.2 172.742 7.912C172.774 7.82667 172.822 7.77333 172.886 7.752C172.95 7.72 173.019 7.704 173.094 7.704C173.158 7.704 173.227 7.72 173.302 7.752C173.387 7.784 173.43 7.84267 173.43 7.928L173.318 9.752L175.19 9.64C175.286 9.62933 175.35 9.656 175.382 9.72C175.414 9.784 175.43 9.85867 175.43 9.944C175.43 10.0507 175.408 10.1573 175.366 10.264C175.334 10.3707 175.291 10.424 175.238 10.424L173.446 10.376V15.24C173.446 15.5493 173.51 15.832 173.638 16.088C173.776 16.344 174.022 16.472 174.374 16.472C174.491 16.472 174.624 16.4613 174.774 16.44C174.923 16.4187 175.083 16.3707 175.254 16.296C175.296 16.2747 175.339 16.2587 175.382 16.248C175.424 16.2267 175.467 16.216 175.51 16.216C175.595 16.216 175.659 16.2533 175.702 16.328C175.744 16.392 175.782 16.4613 175.814 16.536C175.846 16.632 175.819 16.7067 175.734 16.76C175.403 16.9733 175.099 17.112 174.822 17.176C174.544 17.24 174.235 17.272 173.894 17.272ZM179.988 17.192C179.167 17.192 178.479 17.048 177.924 16.76C177.38 16.4613 177.108 16.0347 177.108 15.48C177.108 15.1707 177.199 14.92 177.38 14.728C177.572 14.536 177.817 14.44 178.116 14.44C178.308 14.44 178.463 14.4933 178.58 14.6C178.708 14.696 178.772 14.7653 178.772 14.808C178.772 14.84 178.708 14.9147 178.58 15.032C178.463 15.1387 178.404 15.3147 178.404 15.56C178.404 15.8587 178.543 16.1093 178.82 16.312C179.108 16.504 179.54 16.6 180.116 16.6C180.617 16.6 181.007 16.4933 181.284 16.28C181.572 16.056 181.716 15.7467 181.716 15.352C181.716 15.032 181.609 14.7867 181.396 14.616C181.193 14.4347 180.927 14.2907 180.596 14.184C180.276 14.0773 179.929 13.9707 179.556 13.864C179.193 13.7573 178.847 13.624 178.516 13.464C178.185 13.304 177.913 13.0853 177.7 12.808C177.497 12.52 177.396 12.1413 177.396 11.672C177.396 11.192 177.54 10.7973 177.828 10.488C178.116 10.1787 178.484 9.94933 178.932 9.8C179.38 9.64 179.833 9.56 180.292 9.56C180.687 9.56 181.06 9.61867 181.412 9.736C181.764 9.84267 182.052 10.008 182.276 10.232C182.511 10.456 182.628 10.7387 182.628 11.08C182.628 11.3467 182.543 11.5867 182.372 11.8C182.201 12.0133 181.967 12.12 181.668 12.12C181.476 12.12 181.316 12.072 181.188 11.976C181.071 11.8693 181.012 11.7947 181.012 11.752C181.012 11.7307 181.049 11.6933 181.124 11.64C181.209 11.576 181.289 11.496 181.364 11.4C181.439 11.2933 181.476 11.16 181.476 11C181.455 10.6907 181.305 10.4613 181.028 10.312C180.751 10.1627 180.441 10.088 180.1 10.088C179.727 10.088 179.38 10.1787 179.06 10.36C178.74 10.5413 178.58 10.8027 178.58 11.144C178.58 11.4533 178.644 11.6933 178.772 11.864C178.911 12.0347 179.124 12.184 179.412 12.312C179.711 12.4293 180.095 12.5627 180.564 12.712C181.033 12.8613 181.444 13.016 181.796 13.176C182.159 13.336 182.436 13.5493 182.628 13.816C182.831 14.072 182.932 14.424 182.932 14.872C182.932 15.32 182.804 15.72 182.548 16.072C182.292 16.424 181.94 16.7013 181.492 16.904C181.055 17.096 180.553 17.192 179.988 17.192ZM187.994 17.192C187.172 17.192 186.479 17.016 185.914 16.664C185.359 16.312 184.943 15.8427 184.666 15.256C184.388 14.6693 184.25 14.0293 184.25 13.336C184.25 12.8667 184.33 12.4133 184.49 11.976C184.66 11.528 184.9 11.1227 185.21 10.76C185.519 10.3867 185.892 10.0933 186.33 9.88C186.767 9.66667 187.263 9.56 187.818 9.56C188.799 9.56 189.535 9.816 190.026 10.328C190.527 10.8293 190.815 11.4693 190.89 12.248C190.89 12.6213 190.783 12.8667 190.57 12.984C190.367 13.1013 190.1 13.16 189.77 13.16H185.882C185.882 13.7787 185.967 14.3333 186.138 14.824C186.308 15.304 186.575 15.688 186.938 15.976C187.311 16.2533 187.802 16.392 188.41 16.392C188.858 16.392 189.242 16.296 189.562 16.104C189.882 15.912 190.191 15.576 190.49 15.096C190.575 14.9893 190.692 14.984 190.842 15.08C190.927 15.1227 190.98 15.192 191.002 15.288C191.023 15.3733 191.012 15.448 190.97 15.512C190.639 16.0347 190.223 16.4453 189.722 16.744C189.22 17.0427 188.644 17.192 187.994 17.192ZM185.882 12.552H188.49C188.746 12.552 188.948 12.504 189.098 12.408C189.258 12.3013 189.343 12.1253 189.354 11.88C189.354 11.4213 189.226 11.016 188.97 10.664C188.724 10.3013 188.34 10.12 187.818 10.12C187.284 10.12 186.836 10.3333 186.474 10.76C186.122 11.1867 185.924 11.784 185.882 12.552ZM194.313 17.192C193.662 17.192 193.14 17.0053 192.745 16.632C192.361 16.2587 192.169 15.8107 192.169 15.288C192.169 14.744 192.308 14.3173 192.585 14.008C192.873 13.6987 193.246 13.4693 193.705 13.32C194.174 13.1707 194.681 13.0693 195.225 13.016C195.78 12.9627 196.318 12.92 196.841 12.888V11.624C196.841 11.1227 196.713 10.7333 196.457 10.456C196.212 10.168 195.79 10.024 195.193 10.024C194.894 10.024 194.612 10.12 194.345 10.312C194.089 10.504 193.961 10.7813 193.961 11.144C193.961 11.3147 194.004 11.4587 194.089 11.576C194.174 11.6933 194.26 11.784 194.345 11.848C194.43 11.912 194.473 11.9547 194.473 11.976C194.473 12.0187 194.409 12.0987 194.281 12.216C194.164 12.3227 193.998 12.376 193.785 12.376C193.454 12.376 193.198 12.2533 193.017 12.008C192.836 11.7627 192.745 11.4907 192.745 11.192C192.745 10.7867 192.868 10.4667 193.113 10.232C193.369 9.99733 193.694 9.82667 194.089 9.72C194.484 9.61333 194.884 9.56 195.289 9.56C195.769 9.56 196.233 9.61867 196.681 9.736C197.14 9.85333 197.513 10.0773 197.801 10.408C198.1 10.7387 198.249 11.2347 198.249 11.896V15.624C198.26 15.7307 198.286 15.8587 198.329 16.008C198.372 16.1573 198.452 16.2907 198.569 16.408C198.697 16.5147 198.868 16.568 199.081 16.568C199.156 16.568 199.214 16.584 199.257 16.616C199.3 16.6373 199.321 16.7067 199.321 16.824C199.321 16.92 199.268 16.9947 199.161 17.048C199.054 17.1013 198.932 17.1387 198.793 17.16C198.654 17.1813 198.537 17.192 198.441 17.192C198.046 17.192 197.694 17.08 197.385 16.856C197.076 16.6213 196.894 16.3013 196.841 15.896C196.606 16.3227 196.254 16.648 195.785 16.872C195.326 17.0853 194.836 17.192 194.313 17.192ZM194.825 16.328C195.188 16.328 195.518 16.2373 195.817 16.056C196.126 15.8747 196.372 15.6293 196.553 15.32C196.745 15 196.841 14.648 196.841 14.264V13.352C195.742 13.4267 194.958 13.6027 194.489 13.88C194.02 14.1573 193.785 14.6107 193.785 15.24C193.785 15.9653 194.132 16.328 194.825 16.328ZM202.987 17.272C202.667 17.272 202.363 17.192 202.075 17.032C201.787 16.872 201.547 16.6267 201.355 16.296C201.174 15.9653 201.083 15.5493 201.083 15.048V10.344L200.155 10.376C200.081 10.376 200.022 10.3493 199.979 10.296C199.947 10.232 199.931 10.1627 199.931 10.088C199.931 9.87467 200.006 9.752 200.155 9.72C200.55 9.64533 200.849 9.52267 201.051 9.352C201.254 9.17067 201.409 8.95733 201.515 8.712C201.633 8.46667 201.739 8.2 201.835 7.912C201.867 7.82667 201.915 7.77333 201.979 7.752C202.043 7.72 202.113 7.704 202.187 7.704C202.251 7.704 202.321 7.72 202.395 7.752C202.481 7.784 202.523 7.84267 202.523 7.928L202.411 9.752L204.283 9.64C204.379 9.62933 204.443 9.656 204.475 9.72C204.507 9.784 204.523 9.85867 204.523 9.944C204.523 10.0507 204.502 10.1573 204.459 10.264C204.427 10.3707 204.385 10.424 204.331 10.424L202.539 10.376V15.24C202.539 15.5493 202.603 15.832 202.731 16.088C202.87 16.344 203.115 16.472 203.467 16.472C203.585 16.472 203.718 16.4613 203.867 16.44C204.017 16.4187 204.177 16.3707 204.347 16.296C204.39 16.2747 204.433 16.2587 204.475 16.248C204.518 16.2267 204.561 16.216 204.603 16.216C204.689 16.216 204.753 16.2533 204.795 16.328C204.838 16.392 204.875 16.4613 204.907 16.536C204.939 16.632 204.913 16.7067 204.827 16.76C204.497 16.9733 204.193 17.112 203.915 17.176C203.638 17.24 203.329 17.272 202.987 17.272Z" fill="#F0E8C2"/>
</svg>
